<?xml version="1.0" encoding="iso-8859-1"?>
<!-- Generator: Adobe Illustrator 19.0.0, SVG Export Plug-In . SVG Version: 6.00 Build 0)  -->
<svg version="1.1" id="Capa_1" xmlns="http://www.w3.org/2000/svg" xmlns:xlink="http://www.w3.org/1999/xlink" x="0px" y="0px"
	 viewBox="0 0 512 512" style="enable-background:new 0 0 512 512;" xml:space="preserve">
<g>
	<g>
		<polygon points="339.392,290.624 512,399.744 512,176.896 		"/>
	</g>
</g>
<g>
	<g>
		<polygon points="0,176.896 0,399.744 172.608,290.624 		"/>
	</g>
</g>
<g>
	<g>
		<path d="M480,112H32c-15.968,0-28.64,11.904-31.04,27.232L256,307.264l255.04-168.032C508.64,123.904,495.968,112,480,112z"/>
	</g>
</g>
<g>
	<g>
		<path d="M310.08,309.952l-45.28,29.824c-2.688,1.76-5.728,2.624-8.8,2.624c-3.072,0-6.112-0.864-8.8-2.624l-45.28-29.856
			L1.024,436.992C3.488,452.192,16.096,464,32,464h448c15.904,0,28.512-11.808,30.976-27.008L310.08,309.952z"/>
	</g>
</g>
<g>
	<g>
		<path d="M448,48H64c-17.664,0-32,14.336-32,32h448C480,62.336,465.664,48,448,48z"/>
	</g>
</g>
<g>
</g>
<g>
</g>
<g>
</g>
<g>
</g>
<g>
</g>
<g>
</g>
<g>
</g>
<g>
</g>
<g>
</g>
<g>
</g>
<g>
</g>
<g>
</g>
<g>
</g>
<g>
</g>
<g>
</g>
</svg>
